<?xml version="1.0" encoding="UTF-8"?>
<svg enable-background="new 0 0 133.878 120.648" viewBox="0 0 133.878 120.648" xmlns="http://www.w3.org/2000/svg">
 <defs>
  <linearGradient id="c" x1="-244.57" x2="-242.82" gradientTransform="matrix(56.998 90.496 90.496 -56.998 -27344 47971)" gradientUnits="userSpaceOnUse">
   <stop stop-color="#fffa5f" offset="0"/>
   <stop stop-color="#9f3300" offset="1"/>
  </linearGradient>
  <linearGradient id="b" x1="-246.98" x2="-245.23" gradientTransform="matrix(68.228 33.002 33.002 -68.228 1614 39386)" gradientUnits="userSpaceOnUse">
   <stop stop-color="#fffa5f" offset="0"/>
   <stop stop-color="#9f3300" offset="1"/>
  </linearGradient>
  <linearGradient id="a" x1="-247" x2="-245.23" gradientTransform="matrix(68.224 33 33 -68.224 1604.7 39403)" gradientUnits="userSpaceOnUse">
   <stop stop-color="#fffa5f" offset="0"/>
   <stop stop-color="#9f3300" offset="1"/>
  </linearGradient>
 </defs>
 <path d="m51.333 8.834-49.044 85.529c-7.081 12.352 3.352 26.285 16.453 26.285h97.386c13.293 0 20.963-14.273 16.452-26.031-4.114-10.729-11.861-20.99-17.542-30.922l-26.429-46.212-5.434-9.5c-6.574-11.499-25.559-10.013-31.842 0.851m2.64 0.23" fill="url(#c)"/>
 <path d="m55.474,12.388-24.739,42.839-16.577,28.707c-2.732,4.73-7.323,10.456-8.284,16-3.799,21.9 34.927,15.743 46.734,15.743h60.215c13.716,0 18.636-11.963 12.229-23.063-6.462-11.195-12.927-22.388-19.389-33.582l-21.75-37.671c-1.682-2.916-3.364-5.829-5.049-8.745-5.097-8.831-18.188-9.252-23.39-.228" fill="#fff200" fill-rule="evenodd"/>
 <path d="m55.474,12.388-24.739,42.839-16.577,28.707c-2.732,4.73-7.323,10.456-8.284,16-3.799,21.9 34.927,15.743 46.734,15.743h60.215c13.716,0 18.636-11.963 12.229-23.063-6.462-11.195-12.927-22.388-19.389-33.582l-21.75-37.671c-1.682-2.916-3.364-5.829-5.049-8.745-5.097-8.831-18.188-9.252-23.39-.228" fill="#ffce00"/>
 <path d="m126.73 95.522-26.201-45.379c-5.537-9.595-11.078-19.188-16.616-28.781-3.938-6.821-7.459-15.689-16.813-15.689 1.013 0 5.901 10.225 6.469 11.196 5.451 9.314 10.902 18.63 16.352 27.947l27.646 47.249c2.302 3.933 5.356 10.555 1.308 14.397-3.148 2.987-7.99 3.196-12.099 3.196h-98.845c5.285 7.909 16.341 6.02 24.546 6.02h82.507c10.151 0 16.893-11.243 11.746-20.156" fill="#ffb600"/>
 <path d="m14.615,112.457c-4.483-7.751 1.908-16.103 5.793-22.834l14.097-24.414 30.105-52.14c.789-1.367 3.725-4.568 2.594-5.539-3.913-3.353-10.287,1.936-12.107,5.087l-9.386,16.252-33.313,57.68-4.95,8.569c-4.771,8.265-.075,19.162 9.658,20.446-.982-.914-1.812-1.949-2.491-3.107" fill="#ffe600" fill-rule="evenodd"/>
 <path d="m77.076,34.654c0,10.183-1.788,20.758-3.439,30.772-.369,2.239-4.03,23.609-7.796,14.179-4.247-10.632-4.832-23.419-5.958-34.696-.363-3.638-1.538-8.425-.563-12.06 2.347-8.75 17.756-7.65 17.756,1.805" fill="#ffffe1" fill-rule="evenodd"/>
 <path d="m77.076,34.654c-2.018.995-1.521,8.717-1.797,11.395-.685,6.643-1.505,13.282-2.614,19.869-.79,4.701-1.301,10.862-3.954,14.981-1.642,2.567-3.405-5.958-3.634-6.932-2.948-12.443-4.464-25.664-5.09-38.43-.272-5.52 5.164-8.854 10.277-7.622 3.87.933 5.217,7.36 7.688,6.738 .009-11.451-19.755-11.453-19.746,0 .017,11.956 2.087,24.599 4.423,36.294 .501,2.507 1.642,12.376 5.449,12.376 4.059-.021 5.285-11.432 5.79-14.137 1.261-6.765 2.139-13.605 2.887-20.444 .329-3.02 2.526-12.8.321-14.088" fill="#fff"/>
 <path d="m57.957,34.654c0,10.053 1.632,20.54 3.242,30.431 .479,2.936 4.912,26.502 9.99,15.164 4.987-11.134 5.351-25.201 6.386-37.184 .273-3.169 1.153-7.045.421-10.221-2.368-10.257-20.039-9.056-20.039,1.81m2.25,0c0-8.061 13.138-9.015 15.459-1.792 1.156,3.597-.13,8.748-.508,12.38-1.135,10.904-2.052,22.602-5.501,33.069-2.816,8.545-5.546-10.187-5.934-12.522-1.684-10.159-3.516-20.804-3.516-31.135" fill="url(#b)" fill-rule="evenodd"/>
 <path d="m77.076 96.788c0 11.964-18.555 11.964-18.555 0 0-11.966 18.555-11.966 18.555 0" fill="#ffffe1" fill-rule="evenodd"/>
 <path d="m77.076,96.788c-2.605,1.661-2.157,6.757-7.044,8.101-6.178,1.7-12.033-4.159-10.336-10.335 1.439-5.23 7.657-7.767 12.341-5.021 2.91,1.704 3.164,7.913 5.915,7.256 0-14.267-22.698-12.238-20.143,1.826 .987,5.444 6.375,9.15 11.814,8.162 2.794-.506 11.817-8.587 7.453-9.989" fill="#fff"/>
 <path d="m57.395 96.788c0 13.41 20.805 13.41 20.805 0s-20.805-13.413-20.805 0m2.252 0c0-10.514 16.301-10.514 16.301 0s-16.301 10.512-16.301 0" fill="url(#a)" fill-rule="evenodd"/>
</svg>
